<svg width="147" height="23" viewBox="0 0 147 23" fill="none" xmlns="http://www.w3.org/2000/svg">
<path d="M11.2747 4.2207V11.8486H3.58917V4.2207H0V22.7291H3.58917V15.1399H11.2747V22.7291H14.8639V4.2207H11.2747Z" fill="#0C1939"/>
<path d="M41.8997 23.0002C36.711 23.0002 32.3416 19.2443 32.3416 13.475C32.3416 7.7056 36.75 3.94971 42.0167 3.94971C44.5135 3.94971 47.5955 4.84028 49.5462 7.97664L46.9323 9.75779C45.6839 8.05408 43.9283 7.31839 42.0557 7.31839C38.7006 7.31839 36.0088 9.64163 36.0088 13.4362C36.0088 17.2309 38.6616 19.6702 42.0557 19.6702C44.3575 19.6702 46.4251 18.5861 46.9713 15.7208H42.4849V12.778H50.4435C51.3017 19.1669 47.0494 23.0002 41.8997 23.0002Z" fill="#0C1939"/>
<path d="M68.8965 4.2207V22.7291H65.2683V15.1399H57.6218V22.7291H53.9937V4.2207H57.6218V11.8486H65.2683V4.2207H68.8965Z" fill="#0C1939"/>
<path d="M84.0335 19.4379V22.7291H73.1489V4.2207H76.7381V19.4379H84.0335Z" fill="#0C1939"/>
<path d="M91.3287 4.2207H87.7395V22.7291H91.3287V4.2207Z" fill="#0C1939"/>
<path d="M104.359 23.0002C99.1702 23.0002 94.8008 19.2443 94.8008 13.475C94.8008 7.7056 99.2092 3.94971 104.476 3.94971C106.973 3.94971 110.055 4.84028 112.005 7.97664L109.392 9.75779C108.143 8.05408 106.388 7.31839 104.515 7.31839C101.16 7.31839 98.468 9.64163 98.468 13.4362C98.468 17.2309 101.121 19.6702 104.515 19.6702C106.817 19.6702 108.884 18.5861 109.431 15.7208H104.944V12.778H112.903C113.761 19.1669 109.509 23.0002 104.359 23.0002Z" fill="#0C1939"/>
<path d="M131.317 4.2207V22.7291H127.728V15.1399H120.042V22.7291H116.453V4.2207H120.042V11.8486H127.728V4.2207H131.317Z" fill="#0C1939"/>
<path d="M147 7.51195H142.514V22.7291H138.885V7.51195H134.399V4.2207H147V7.51195Z" fill="#0C1939"/>
<path d="M26.0214 4.06558C25.5533 4.33662 25.0071 4.4915 24.4219 4.4915C23.8367 4.4915 23.2905 4.2979 22.8224 4.02686L17.9458 22.845L30.1178 23.0386L26.0214 4.06558Z" fill="#FBDF46"/>
<path d="M24.4609 0C25.2802 0 25.9434 0.69697 25.9434 1.5101C25.9434 2.32323 25.2412 2.98148 24.4219 2.98148C23.6027 2.98148 22.9395 2.28451 22.9395 1.47138C22.9395 0.658249 23.6417 0 24.4609 0Z" fill="#FBDF46"/>
</svg>
