<svg width="330" height="214" viewBox="0 0 330 214" fill="none" xmlns="http://www.w3.org/2000/svg">
<mask id="mask0_452_914" style="mask-type:alpha" maskUnits="userSpaceOnUse" x="0" y="0" width="427" height="214">
<path d="M427 213.5C213.5 213.5 331.413 213.5 213.5 213.5C95.5872 213.5 118.5 213.5 0 213.5C0 95.5872 95.5872 0 213.5 0C331.413 0 427 95.5872 427 213.5Z" fill="#C4C4C4"/>
</mask>
<g mask="url(#mask0_452_914)">
<circle cx="4" cy="4" r="4" fill="#233359" fill-opacity="0.1"/>
<circle cx="20" cy="4" r="4" fill="#233359" fill-opacity="0.1"/>
<circle cx="36" cy="4" r="4" fill="#233359" fill-opacity="0.1"/>
<circle cx="52" cy="4" r="4" fill="#233359" fill-opacity="0.1"/>
<circle cx="68" cy="4" r="4" fill="#233359" fill-opacity="0.1"/>
<circle cx="84" cy="4" r="4" fill="#233359" fill-opacity="0.1"/>
<circle cx="100" cy="4" r="4" fill="#233359" fill-opacity="0.1"/>
<circle cx="116" cy="4" r="4" fill="#233359" fill-opacity="0.1"/>
<circle cx="132" cy="4" r="4" fill="#233359" fill-opacity="0.1"/>
<circle cx="148" cy="4" r="4" fill="#233359" fill-opacity="0.1"/>
<circle cx="164" cy="4" r="4" fill="#233359" fill-opacity="0.1"/>
<circle cx="180" cy="4" r="4" fill="#233359" fill-opacity="0.1"/>
<circle cx="196" cy="4" r="4" fill="#233359" fill-opacity="0.1"/>
<circle cx="212" cy="4" r="4" fill="#233359" fill-opacity="0.1"/>
<circle cx="228" cy="4" r="4" fill="#233359" fill-opacity="0.1"/>
<circle cx="244" cy="4" r="4" fill="#233359" fill-opacity="0.1"/>
<circle cx="260" cy="4" r="4" fill="#233359" fill-opacity="0.1"/>
<circle cx="276" cy="4" r="4" fill="#233359" fill-opacity="0.1"/>
<circle cx="292" cy="4" r="4" fill="#233359" fill-opacity="0.1"/>
<circle cx="308" cy="4" r="4" fill="#233359" fill-opacity="0.1"/>
<circle cx="324" cy="4" r="4" fill="#233359" fill-opacity="0.1"/>
<circle cx="4" cy="20" r="4" fill="#233359" fill-opacity="0.1"/>
<circle cx="20" cy="20" r="4" fill="#233359" fill-opacity="0.1"/>
<circle cx="36" cy="20" r="4" fill="#233359" fill-opacity="0.1"/>
<circle cx="52" cy="20" r="4" fill="#233359" fill-opacity="0.1"/>
<circle cx="68" cy="20" r="4" fill="#233359" fill-opacity="0.1"/>
<circle cx="84" cy="20" r="4" fill="#233359" fill-opacity="0.1"/>
<circle cx="100" cy="20" r="4" fill="#233359" fill-opacity="0.1"/>
<circle cx="116" cy="20" r="4" fill="#233359" fill-opacity="0.1"/>
<circle cx="132" cy="20" r="4" fill="#233359" fill-opacity="0.1"/>
<circle cx="148" cy="20" r="4" fill="#233359" fill-opacity="0.1"/>
<circle cx="164" cy="20" r="4" fill="#233359" fill-opacity="0.1"/>
<circle cx="180" cy="20" r="4" fill="#233359" fill-opacity="0.1"/>
<circle cx="196" cy="20" r="4" fill="#233359" fill-opacity="0.1"/>
<circle cx="212" cy="20" r="4" fill="#233359" fill-opacity="0.1"/>
<circle cx="228" cy="20" r="4" fill="#233359" fill-opacity="0.1"/>
<circle cx="244" cy="20" r="4" fill="#233359" fill-opacity="0.1"/>
<circle cx="260" cy="20" r="4" fill="#233359" fill-opacity="0.1"/>
<circle cx="276" cy="20" r="4" fill="#233359" fill-opacity="0.1"/>
<circle cx="292" cy="20" r="4" fill="#233359" fill-opacity="0.1"/>
<circle cx="308" cy="20" r="4" fill="#233359" fill-opacity="0.1"/>
<circle cx="324" cy="20" r="4" fill="#233359" fill-opacity="0.1"/>
<circle cx="4" cy="36" r="4" fill="#233359" fill-opacity="0.1"/>
<circle cx="20" cy="36" r="4" fill="#233359" fill-opacity="0.1"/>
<circle cx="36" cy="36" r="4" fill="#233359" fill-opacity="0.1"/>
<circle cx="52" cy="36" r="4" fill="#233359" fill-opacity="0.1"/>
<circle cx="68" cy="36" r="4" fill="#233359" fill-opacity="0.1"/>
<circle cx="84" cy="36" r="4" fill="#233359" fill-opacity="0.1"/>
<circle cx="100" cy="36" r="4" fill="#233359" fill-opacity="0.1"/>
<circle cx="116" cy="36" r="4" fill="#233359" fill-opacity="0.1"/>
<circle cx="132" cy="36" r="4" fill="#233359" fill-opacity="0.1"/>
<circle cx="148" cy="36" r="4" fill="#233359" fill-opacity="0.1"/>
<circle cx="164" cy="36" r="4" fill="#233359" fill-opacity="0.1"/>
<circle cx="180" cy="36" r="4" fill="#233359" fill-opacity="0.1"/>
<circle cx="196" cy="36" r="4" fill="#233359" fill-opacity="0.1"/>
<circle cx="212" cy="36" r="4" fill="#233359" fill-opacity="0.1"/>
<circle cx="228" cy="36" r="4" fill="#233359" fill-opacity="0.1"/>
<circle cx="244" cy="36" r="4" fill="#233359" fill-opacity="0.1"/>
<circle cx="260" cy="36" r="4" fill="#233359" fill-opacity="0.1"/>
<circle cx="276" cy="36" r="4" fill="#233359" fill-opacity="0.1"/>
<circle cx="292" cy="36" r="4" fill="#233359" fill-opacity="0.1"/>
<circle cx="308" cy="36" r="4" fill="#233359" fill-opacity="0.1"/>
<circle cx="324" cy="36" r="4" fill="#233359" fill-opacity="0.1"/>
<circle cx="4" cy="52" r="4" fill="#233359" fill-opacity="0.1"/>
<circle cx="20" cy="52" r="4" fill="#233359" fill-opacity="0.1"/>
<circle cx="36" cy="52" r="4" fill="#233359" fill-opacity="0.1"/>
<circle cx="52" cy="52" r="4" fill="#233359" fill-opacity="0.1"/>
<circle cx="68" cy="52" r="4" fill="#233359" fill-opacity="0.1"/>
<circle cx="84" cy="52" r="4" fill="#233359" fill-opacity="0.1"/>
<circle cx="100" cy="52" r="4" fill="#233359" fill-opacity="0.1"/>
<circle cx="116" cy="52" r="4" fill="#233359" fill-opacity="0.1"/>
<circle cx="132" cy="52" r="4" fill="#233359" fill-opacity="0.1"/>
<circle cx="148" cy="52" r="4" fill="#233359" fill-opacity="0.1"/>
<circle cx="164" cy="52" r="4" fill="#233359" fill-opacity="0.1"/>
<circle cx="180" cy="52" r="4" fill="#233359" fill-opacity="0.1"/>
<circle cx="196" cy="52" r="4" fill="#233359" fill-opacity="0.1"/>
<circle cx="212" cy="52" r="4" fill="#233359" fill-opacity="0.1"/>
<circle cx="228" cy="52" r="4" fill="#233359" fill-opacity="0.1"/>
<circle cx="244" cy="52" r="4" fill="#233359" fill-opacity="0.1"/>
<circle cx="260" cy="52" r="4" fill="#233359" fill-opacity="0.1"/>
<circle cx="276" cy="52" r="4" fill="#233359" fill-opacity="0.1"/>
<circle cx="292" cy="52" r="4" fill="#233359" fill-opacity="0.1"/>
<circle cx="308" cy="52" r="4" fill="#233359" fill-opacity="0.1"/>
<circle cx="324" cy="52" r="4" fill="#233359" fill-opacity="0.1"/>
<circle cx="4" cy="68" r="4" fill="#233359" fill-opacity="0.1"/>
<circle cx="20" cy="68" r="4" fill="#233359" fill-opacity="0.1"/>
<circle cx="36" cy="68" r="4" fill="#233359" fill-opacity="0.1"/>
<circle cx="52" cy="68" r="4" fill="#233359" fill-opacity="0.1"/>
<circle cx="68" cy="68" r="4" fill="#233359" fill-opacity="0.1"/>
<circle cx="84" cy="68" r="4" fill="#233359" fill-opacity="0.1"/>
<circle cx="100" cy="68" r="4" fill="#233359" fill-opacity="0.1"/>
<circle cx="116" cy="68" r="4" fill="#233359" fill-opacity="0.1"/>
<circle cx="132" cy="68" r="4" fill="#233359" fill-opacity="0.1"/>
<circle cx="148" cy="68" r="4" fill="#233359" fill-opacity="0.1"/>
<circle cx="164" cy="68" r="4" fill="#233359" fill-opacity="0.1"/>
<circle cx="180" cy="68" r="4" fill="#233359" fill-opacity="0.1"/>
<circle cx="196" cy="68" r="4" fill="#233359" fill-opacity="0.1"/>
<circle cx="212" cy="68" r="4" fill="#233359" fill-opacity="0.1"/>
<circle cx="228" cy="68" r="4" fill="#233359" fill-opacity="0.1"/>
<circle cx="244" cy="68" r="4" fill="#233359" fill-opacity="0.1"/>
<circle cx="260" cy="68" r="4" fill="#233359" fill-opacity="0.1"/>
<circle cx="276" cy="68" r="4" fill="#233359" fill-opacity="0.1"/>
<circle cx="292" cy="68" r="4" fill="#233359" fill-opacity="0.1"/>
<circle cx="308" cy="68" r="4" fill="#233359" fill-opacity="0.1"/>
<circle cx="324" cy="68" r="4" fill="#233359" fill-opacity="0.1"/>
<circle cx="4" cy="84" r="4" fill="#233359" fill-opacity="0.1"/>
<circle cx="20" cy="84" r="4" fill="#233359" fill-opacity="0.1"/>
<circle cx="36" cy="84" r="4" fill="#233359" fill-opacity="0.1"/>
<circle cx="52" cy="84" r="4" fill="#233359" fill-opacity="0.1"/>
<circle cx="68" cy="84" r="4" fill="#233359" fill-opacity="0.1"/>
<circle cx="84" cy="84" r="4" fill="#233359" fill-opacity="0.1"/>
<circle cx="100" cy="84" r="4" fill="#233359" fill-opacity="0.1"/>
<circle cx="116" cy="84" r="4" fill="#233359" fill-opacity="0.1"/>
<circle cx="132" cy="84" r="4" fill="#233359" fill-opacity="0.1"/>
<circle cx="148" cy="84" r="4" fill="#233359" fill-opacity="0.1"/>
<circle cx="164" cy="84" r="4" fill="#233359" fill-opacity="0.1"/>
<circle cx="180" cy="84" r="4" fill="#233359" fill-opacity="0.1"/>
<circle cx="196" cy="84" r="4" fill="#233359" fill-opacity="0.1"/>
<circle cx="212" cy="84" r="4" fill="#233359" fill-opacity="0.1"/>
<circle cx="228" cy="84" r="4" fill="#233359" fill-opacity="0.1"/>
<circle cx="244" cy="84" r="4" fill="#233359" fill-opacity="0.1"/>
<circle cx="260" cy="84" r="4" fill="#233359" fill-opacity="0.1"/>
<circle cx="276" cy="84" r="4" fill="#233359" fill-opacity="0.1"/>
<circle cx="292" cy="84" r="4" fill="#233359" fill-opacity="0.1"/>
<circle cx="308" cy="84" r="4" fill="#233359" fill-opacity="0.1"/>
<circle cx="324" cy="84" r="4" fill="#233359" fill-opacity="0.1"/>
<circle cx="4" cy="100" r="4" fill="#233359" fill-opacity="0.1"/>
<circle cx="20" cy="100" r="4" fill="#233359" fill-opacity="0.1"/>
<circle cx="36" cy="100" r="4" fill="#233359" fill-opacity="0.1"/>
<circle cx="52" cy="100" r="4" fill="#233359" fill-opacity="0.1"/>
<circle cx="68" cy="100" r="4" fill="#233359" fill-opacity="0.1"/>
<circle cx="84" cy="100" r="4" fill="#233359" fill-opacity="0.1"/>
<circle cx="100" cy="100" r="4" fill="#233359" fill-opacity="0.1"/>
<circle cx="116" cy="100" r="4" fill="#233359" fill-opacity="0.1"/>
<circle cx="132" cy="100" r="4" fill="#233359" fill-opacity="0.1"/>
<circle cx="148" cy="100" r="4" fill="#233359" fill-opacity="0.1"/>
<circle cx="164" cy="100" r="4" fill="#233359" fill-opacity="0.1"/>
<circle cx="180" cy="100" r="4" fill="#233359" fill-opacity="0.1"/>
<circle cx="196" cy="100" r="4" fill="#233359" fill-opacity="0.1"/>
<circle cx="212" cy="100" r="4" fill="#233359" fill-opacity="0.1"/>
<circle cx="228" cy="100" r="4" fill="#233359" fill-opacity="0.1"/>
<circle cx="244" cy="100" r="4" fill="#233359" fill-opacity="0.1"/>
<circle cx="260" cy="100" r="4" fill="#233359" fill-opacity="0.1"/>
<circle cx="276" cy="100" r="4" fill="#233359" fill-opacity="0.1"/>
<circle cx="292" cy="100" r="4" fill="#233359" fill-opacity="0.1"/>
<circle cx="308" cy="100" r="4" fill="#233359" fill-opacity="0.1"/>
<circle cx="324" cy="100" r="4" fill="#233359" fill-opacity="0.1"/>
<circle cx="4" cy="116" r="4" fill="#233359" fill-opacity="0.1"/>
<circle cx="20" cy="116" r="4" fill="#233359" fill-opacity="0.1"/>
<circle cx="36" cy="116" r="4" fill="#233359" fill-opacity="0.1"/>
<circle cx="52" cy="116" r="4" fill="#233359" fill-opacity="0.1"/>
<circle cx="68" cy="116" r="4" fill="#233359" fill-opacity="0.1"/>
<circle cx="84" cy="116" r="4" fill="#233359" fill-opacity="0.1"/>
<circle cx="100" cy="116" r="4" fill="#233359" fill-opacity="0.1"/>
<circle cx="116" cy="116" r="4" fill="#233359" fill-opacity="0.1"/>
<circle cx="132" cy="116" r="4" fill="#233359" fill-opacity="0.1"/>
<circle cx="148" cy="116" r="4" fill="#233359" fill-opacity="0.1"/>
<circle cx="164" cy="116" r="4" fill="#233359" fill-opacity="0.1"/>
<circle cx="180" cy="116" r="4" fill="#233359" fill-opacity="0.1"/>
<circle cx="196" cy="116" r="4" fill="#233359" fill-opacity="0.1"/>
<circle cx="212" cy="116" r="4" fill="#233359" fill-opacity="0.1"/>
<circle cx="228" cy="116" r="4" fill="#233359" fill-opacity="0.1"/>
<circle cx="244" cy="116" r="4" fill="#233359" fill-opacity="0.1"/>
<circle cx="260" cy="116" r="4" fill="#233359" fill-opacity="0.1"/>
<circle cx="276" cy="116" r="4" fill="#233359" fill-opacity="0.1"/>
<circle cx="292" cy="116" r="4" fill="#233359" fill-opacity="0.1"/>
<circle cx="308" cy="116" r="4" fill="#233359" fill-opacity="0.1"/>
<circle cx="324" cy="116" r="4" fill="#233359" fill-opacity="0.1"/>
<circle cx="4" cy="132" r="4" fill="#233359" fill-opacity="0.1"/>
<circle cx="20" cy="132" r="4" fill="#233359" fill-opacity="0.1"/>
<circle cx="36" cy="132" r="4" fill="#233359" fill-opacity="0.1"/>
<circle cx="52" cy="132" r="4" fill="#233359" fill-opacity="0.1"/>
<circle cx="68" cy="132" r="4" fill="#233359" fill-opacity="0.1"/>
<circle cx="84" cy="132" r="4" fill="#233359" fill-opacity="0.1"/>
<circle cx="100" cy="132" r="4" fill="#233359" fill-opacity="0.1"/>
<circle cx="116" cy="132" r="4" fill="#233359" fill-opacity="0.1"/>
<circle cx="132" cy="132" r="4" fill="#233359" fill-opacity="0.1"/>
<circle cx="148" cy="132" r="4" fill="#233359" fill-opacity="0.1"/>
<circle cx="164" cy="132" r="4" fill="#233359" fill-opacity="0.1"/>
<circle cx="180" cy="132" r="4" fill="#233359" fill-opacity="0.1"/>
<circle cx="196" cy="132" r="4" fill="#233359" fill-opacity="0.1"/>
<circle cx="212" cy="132" r="4" fill="#233359" fill-opacity="0.1"/>
<circle cx="228" cy="132" r="4" fill="#233359" fill-opacity="0.1"/>
<circle cx="244" cy="132" r="4" fill="#233359" fill-opacity="0.1"/>
<circle cx="260" cy="132" r="4" fill="#233359" fill-opacity="0.1"/>
<circle cx="276" cy="132" r="4" fill="#233359" fill-opacity="0.1"/>
<circle cx="292" cy="132" r="4" fill="#233359" fill-opacity="0.1"/>
<circle cx="308" cy="132" r="4" fill="#233359" fill-opacity="0.1"/>
<circle cx="324" cy="132" r="4" fill="#233359" fill-opacity="0.1"/>
<circle cx="4" cy="148" r="4" fill="#233359" fill-opacity="0.1"/>
<circle cx="20" cy="148" r="4" fill="#233359" fill-opacity="0.1"/>
<circle cx="36" cy="148" r="4" fill="#233359" fill-opacity="0.1"/>
<circle cx="52" cy="148" r="4" fill="#233359" fill-opacity="0.1"/>
<circle cx="68" cy="148" r="4" fill="#233359" fill-opacity="0.1"/>
<circle cx="84" cy="148" r="4" fill="#233359" fill-opacity="0.1"/>
<circle cx="100" cy="148" r="4" fill="#233359" fill-opacity="0.1"/>
<circle cx="116" cy="148" r="4" fill="#233359" fill-opacity="0.1"/>
<circle cx="132" cy="148" r="4" fill="#233359" fill-opacity="0.1"/>
<circle cx="148" cy="148" r="4" fill="#233359" fill-opacity="0.1"/>
<circle cx="164" cy="148" r="4" fill="#233359" fill-opacity="0.1"/>
<circle cx="180" cy="148" r="4" fill="#233359" fill-opacity="0.1"/>
<circle cx="196" cy="148" r="4" fill="#233359" fill-opacity="0.1"/>
<circle cx="212" cy="148" r="4" fill="#233359" fill-opacity="0.1"/>
<circle cx="228" cy="148" r="4" fill="#233359" fill-opacity="0.1"/>
<circle cx="244" cy="148" r="4" fill="#233359" fill-opacity="0.1"/>
<circle cx="260" cy="148" r="4" fill="#233359" fill-opacity="0.1"/>
<circle cx="276" cy="148" r="4" fill="#233359" fill-opacity="0.1"/>
<circle cx="292" cy="148" r="4" fill="#233359" fill-opacity="0.1"/>
<circle cx="308" cy="148" r="4" fill="#233359" fill-opacity="0.1"/>
<circle cx="324" cy="148" r="4" fill="#233359" fill-opacity="0.1"/>
<circle cx="4" cy="164" r="4" fill="#233359" fill-opacity="0.1"/>
<circle cx="20" cy="164" r="4" fill="#233359" fill-opacity="0.1"/>
<circle cx="36" cy="164" r="4" fill="#233359" fill-opacity="0.1"/>
<circle cx="52" cy="164" r="4" fill="#233359" fill-opacity="0.1"/>
<circle cx="68" cy="164" r="4" fill="#233359" fill-opacity="0.1"/>
<circle cx="84" cy="164" r="4" fill="#233359" fill-opacity="0.1"/>
<circle cx="100" cy="164" r="4" fill="#233359" fill-opacity="0.1"/>
<circle cx="116" cy="164" r="4" fill="#233359" fill-opacity="0.1"/>
<circle cx="132" cy="164" r="4" fill="#233359" fill-opacity="0.1"/>
<circle cx="148" cy="164" r="4" fill="#233359" fill-opacity="0.1"/>
<circle cx="164" cy="164" r="4" fill="#233359" fill-opacity="0.1"/>
<circle cx="180" cy="164" r="4" fill="#233359" fill-opacity="0.1"/>
<circle cx="196" cy="164" r="4" fill="#233359" fill-opacity="0.1"/>
<circle cx="212" cy="164" r="4" fill="#233359" fill-opacity="0.1"/>
<circle cx="228" cy="164" r="4" fill="#233359" fill-opacity="0.1"/>
<circle cx="244" cy="164" r="4" fill="#233359" fill-opacity="0.1"/>
<circle cx="260" cy="164" r="4" fill="#233359" fill-opacity="0.1"/>
<circle cx="276" cy="164" r="4" fill="#233359" fill-opacity="0.1"/>
<circle cx="292" cy="164" r="4" fill="#233359" fill-opacity="0.1"/>
<circle cx="308" cy="164" r="4" fill="#233359" fill-opacity="0.1"/>
<circle cx="324" cy="164" r="4" fill="#233359" fill-opacity="0.1"/>
<circle cx="4" cy="180" r="4" fill="#233359" fill-opacity="0.1"/>
<circle cx="20" cy="180" r="4" fill="#233359" fill-opacity="0.1"/>
<circle cx="36" cy="180" r="4" fill="#233359" fill-opacity="0.1"/>
<circle cx="52" cy="180" r="4" fill="#233359" fill-opacity="0.1"/>
<circle cx="68" cy="180" r="4" fill="#233359" fill-opacity="0.1"/>
<circle cx="84" cy="180" r="4" fill="#233359" fill-opacity="0.1"/>
<circle cx="100" cy="180" r="4" fill="#233359" fill-opacity="0.1"/>
<circle cx="116" cy="180" r="4" fill="#233359" fill-opacity="0.1"/>
<circle cx="132" cy="180" r="4" fill="#233359" fill-opacity="0.1"/>
<circle cx="148" cy="180" r="4" fill="#233359" fill-opacity="0.1"/>
<circle cx="164" cy="180" r="4" fill="#233359" fill-opacity="0.1"/>
<circle cx="180" cy="180" r="4" fill="#233359" fill-opacity="0.1"/>
<circle cx="196" cy="180" r="4" fill="#233359" fill-opacity="0.1"/>
<circle cx="212" cy="180" r="4" fill="#233359" fill-opacity="0.1"/>
<circle cx="228" cy="180" r="4" fill="#233359" fill-opacity="0.1"/>
<circle cx="244" cy="180" r="4" fill="#233359" fill-opacity="0.1"/>
<circle cx="260" cy="180" r="4" fill="#233359" fill-opacity="0.1"/>
<circle cx="276" cy="180" r="4" fill="#233359" fill-opacity="0.1"/>
<circle cx="292" cy="180" r="4" fill="#233359" fill-opacity="0.1"/>
<circle cx="308" cy="180" r="4" fill="#233359" fill-opacity="0.1"/>
<circle cx="324" cy="180" r="4" fill="#233359" fill-opacity="0.1"/>
<circle cx="4" cy="196" r="4" fill="#233359" fill-opacity="0.1"/>
<circle cx="20" cy="196" r="4" fill="#233359" fill-opacity="0.1"/>
<circle cx="36" cy="196" r="4" fill="#233359" fill-opacity="0.1"/>
<circle cx="52" cy="196" r="4" fill="#233359" fill-opacity="0.1"/>
<circle cx="68" cy="196" r="4" fill="#233359" fill-opacity="0.1"/>
<circle cx="84" cy="196" r="4" fill="#233359" fill-opacity="0.1"/>
<circle cx="100" cy="196" r="4" fill="#233359" fill-opacity="0.1"/>
<circle cx="116" cy="196" r="4" fill="#233359" fill-opacity="0.1"/>
<circle cx="132" cy="196" r="4" fill="#233359" fill-opacity="0.1"/>
<circle cx="148" cy="196" r="4" fill="#233359" fill-opacity="0.1"/>
<circle cx="164" cy="196" r="4" fill="#233359" fill-opacity="0.1"/>
<circle cx="180" cy="196" r="4" fill="#233359" fill-opacity="0.1"/>
<circle cx="196" cy="196" r="4" fill="#233359" fill-opacity="0.1"/>
<circle cx="212" cy="196" r="4" fill="#233359" fill-opacity="0.1"/>
<circle cx="228" cy="196" r="4" fill="#233359" fill-opacity="0.1"/>
<circle cx="244" cy="196" r="4" fill="#233359" fill-opacity="0.1"/>
<circle cx="260" cy="196" r="4" fill="#233359" fill-opacity="0.1"/>
<circle cx="276" cy="196" r="4" fill="#233359" fill-opacity="0.1"/>
<circle cx="292" cy="196" r="4" fill="#233359" fill-opacity="0.1"/>
<circle cx="308" cy="196" r="4" fill="#233359" fill-opacity="0.1"/>
<circle cx="324" cy="196" r="4" fill="#233359" fill-opacity="0.1"/>
<circle cx="4" cy="212" r="4" fill="#233359" fill-opacity="0.1"/>
<circle cx="20" cy="212" r="4" fill="#233359" fill-opacity="0.1"/>
<circle cx="36" cy="212" r="4" fill="#233359" fill-opacity="0.1"/>
<circle cx="52" cy="212" r="4" fill="#233359" fill-opacity="0.1"/>
<circle cx="68" cy="212" r="4" fill="#233359" fill-opacity="0.1"/>
<circle cx="84" cy="212" r="4" fill="#233359" fill-opacity="0.1"/>
<circle cx="100" cy="212" r="4" fill="#233359" fill-opacity="0.1"/>
<circle cx="116" cy="212" r="4" fill="#233359" fill-opacity="0.1"/>
<circle cx="132" cy="212" r="4" fill="#233359" fill-opacity="0.1"/>
<circle cx="148" cy="212" r="4" fill="#233359" fill-opacity="0.1"/>
<circle cx="164" cy="212" r="4" fill="#233359" fill-opacity="0.1"/>
<circle cx="180" cy="212" r="4" fill="#233359" fill-opacity="0.1"/>
<circle cx="196" cy="212" r="4" fill="#233359" fill-opacity="0.1"/>
<circle cx="212" cy="212" r="4" fill="#233359" fill-opacity="0.1"/>
<circle cx="228" cy="212" r="4" fill="#233359" fill-opacity="0.1"/>
<circle cx="244" cy="212" r="4" fill="#233359" fill-opacity="0.1"/>
<circle cx="260" cy="212" r="4" fill="#233359" fill-opacity="0.1"/>
<circle cx="276" cy="212" r="4" fill="#233359" fill-opacity="0.1"/>
<circle cx="292" cy="212" r="4" fill="#233359" fill-opacity="0.1"/>
<circle cx="308" cy="212" r="4" fill="#233359" fill-opacity="0.1"/>
<circle cx="324" cy="212" r="4" fill="#233359" fill-opacity="0.1"/>
</g>
</svg>
