<svg width="32" height="30" viewBox="0 0 32 30" fill="none" xmlns="http://www.w3.org/2000/svg">
<path d="M10.6667 28.3334C10.6667 28.8223 11.0667 29.2223 11.5556 29.2223H13.3333C13.8222 29.2223 14.2222 28.8223 14.2222 28.3334V18.5556H10.6667V28.3334ZM12.4444 13.2223H9.61667L7.10556 10.7056C6.43333 10.0334 5.53889 9.66672 4.59444 9.66672H3.55556C2.60556 9.66672 1.71111 10.0389 1.03889 10.7112C0.372222 11.3834 0 12.2778 0 13.2278L0.0111111 18.5556L0 27.4445C0 28.4278 0.794444 29.2223 1.77222 29.2223C2.75 29.2223 3.55 28.4278 3.55 27.4445L3.55556 21.8501C3.60556 21.8778 3.64444 21.9223 3.69444 21.9445L5.31111 24.3334V27.4445C5.31111 28.4278 6.10556 29.2223 7.08889 29.2223C8.07222 29.2223 8.86667 28.4278 8.86667 27.4445V24.3056C8.86667 23.7556 8.73889 23.2056 8.49444 22.7167L6.20556 19.3112V14.8334L7.36667 15.9945C7.87222 16.5001 8.53889 16.7778 9.25 16.7778H12.4444C13.4278 16.7778 14.2222 15.9834 14.2222 15.0001C14.2222 14.0167 13.4278 13.2223 12.4444 13.2223ZM3.55556 7.88894C5.02778 7.88894 6.22222 6.6945 6.22222 5.22228C6.22222 3.75005 5.02778 2.55561 3.55556 2.55561C2.08333 2.55561 0.888889 3.75005 0.888889 5.22228C0.888889 6.6945 2.08333 7.88894 3.55556 7.88894ZM16 2.55561L17.75 14.9501L16.0333 23.5389C15.7944 24.7389 16.7556 25.6667 17.7778 25.6667C18.6222 25.6667 19.3333 25.1612 19.5722 23.9778C19.6222 24.9167 20.3833 25.6667 21.3333 25.6667C22.3167 25.6667 23.1111 24.8723 23.1111 23.8889C23.1111 24.8723 23.9056 25.6667 24.8889 25.6667C25.8722 25.6667 26.6667 24.8723 26.6667 23.8889V0.777832H16V2.55561ZM10.6667 2.55561V11.4445H14.2222V0.777832H12.4444C11.4611 0.777832 10.6667 1.57228 10.6667 2.55561ZM30.2222 0.777832H28.4444V28.3334C28.4444 28.8223 28.8444 29.2223 29.3333 29.2223H31.1111C31.6 29.2223 32 28.8223 32 28.3334V2.55561C32 1.57228 31.2056 0.777832 30.2222 0.777832Z" fill="#0C1939"/>
</svg>
