<svg width="24" height="24" viewBox="0 0 24 24" fill="none" xmlns="http://www.w3.org/2000/svg">
<circle cx="12" cy="12" r="12" fill="#E8ECED"/>
<path d="M11.6997 14.3201C11.6956 14.1758 11.6935 14.0666 11.6935 13.9945C11.6935 13.568 11.7533 13.1992 11.8748 12.8901C11.9634 12.6573 12.1056 12.4224 12.3034 12.1834C12.4476 12.0103 12.7093 11.7589 13.0843 11.4272C13.4614 11.0934 13.7045 10.8297 13.8178 10.6319C13.9311 10.4361 13.9868 10.2198 13.9868 9.98695C13.9868 9.56457 13.8219 9.19369 13.4923 8.87226C13.1626 8.55288 12.7567 8.39217 12.2787 8.39217C11.8151 8.39217 11.4298 8.53847 11.1207 8.82692C10.8096 9.11745 10.6076 9.57075 10.5108 10.1868L9.39404 10.0529C9.49501 9.22871 9.79377 8.59616 10.2903 8.15728C10.7869 7.7184 11.4442 7.5 12.2601 7.5C13.1255 7.5 13.8158 7.73489 14.3309 8.20673C14.846 8.67651 15.1035 9.2452 15.1035 9.91483C15.1035 10.3001 15.0129 10.6566 14.8315 10.9821C14.6502 11.3077 14.2979 11.7054 13.7704 12.171C13.416 12.4863 13.1853 12.717 13.0761 12.8654C12.9668 13.0158 12.8865 13.1868 12.835 13.3784C12.7814 13.5721 12.7526 13.8853 12.7443 14.3201H11.6997L11.6997 14.3201ZM11.6337 16.5V15.2617H12.87V16.5H11.6337Z" fill="#0C1939"/>
</svg>
