<svg width="7" height="10" viewBox="0 0 7 10" fill="none" xmlns="http://www.w3.org/2000/svg">
<path d="M2.69993 7.32007C2.69581 7.17583 2.69375 7.06663 2.69375 6.99452C2.69375 6.568 2.7535 6.19918 2.87507 5.89012C2.96367 5.65729 3.10584 5.42239 3.30365 5.18338C3.44787 5.01031 3.70954 4.75893 4.08454 4.42721C4.4616 4.09341 4.70474 3.82967 4.81806 3.63188C4.93139 3.43613 4.98702 3.21978 4.98702 2.98695C4.98702 2.56457 4.82218 2.19369 4.49251 1.87226C4.16284 1.55288 3.75694 1.39217 3.27892 1.39217C2.81531 1.39217 2.43001 1.53847 2.12095 1.82692C1.80982 2.11745 1.60789 2.57075 1.51105 3.18681L0.394287 3.05289C0.495251 2.22871 0.794018 1.59616 1.29059 1.15728C1.78715 0.718405 2.44443 0.5 3.26036 0.5C4.12575 0.5 4.81599 0.73489 5.3311 1.20673C5.84621 1.67651 6.10377 2.2452 6.10377 2.91483C6.10377 3.30014 6.01311 3.6566 5.83178 3.98215C5.65047 4.3077 5.29813 4.70536 4.77066 5.17102C4.41626 5.48627 4.1855 5.71704 4.0763 5.8654C3.96709 6.01581 3.88673 6.18682 3.83522 6.37844C3.78165 6.57213 3.7528 6.88531 3.74456 7.32006H2.69992L2.69993 7.32007ZM2.63399 9.50002V8.26169H3.87026V9.50002H2.63399Z" fill="#0C1939"/>
</svg>
