<svg width="156" height="52" viewBox="0 0 156 52" fill="none" xmlns="http://www.w3.org/2000/svg">
<path d="M66.7591 27.3651C66.7591 34.8464 60.9794 40.3592 53.8864 40.3592C46.7934 40.3592 41.0137 34.8464 41.0137 27.3651C41.0137 19.8312 46.7934 14.3711 53.8864 14.3711C60.9794 14.3711 66.7591 19.8312 66.7591 27.3651ZM61.124 27.3651C61.124 22.6901 57.7742 19.4914 53.8864 19.4914C49.9985 19.4914 46.6487 22.6901 46.6487 27.3651C46.6487 31.9933 49.9985 35.2389 53.8864 35.2389C57.7742 35.2389 61.124 31.9875 61.124 27.3651Z" fill="#EA4335"/>
<path d="M94.5291 27.3651C94.5291 34.8464 88.7494 40.3592 81.6564 40.3592C74.5634 40.3592 68.7837 34.8464 68.7837 27.3651C68.7837 19.837 74.5634 14.3711 81.6564 14.3711C88.7494 14.3711 94.5291 19.8312 94.5291 27.3651ZM88.894 27.3651C88.894 22.6901 85.5442 19.4914 81.6564 19.4914C77.7685 19.4914 74.4188 22.6901 74.4188 27.3651C74.4188 31.9933 77.7685 35.2389 81.6564 35.2389C85.5442 35.2389 88.894 31.9875 88.894 27.3651Z" fill="#FBBC05"/>
<path d="M121.142 15.1561V38.4845C121.142 48.0806 115.554 51.9999 108.947 51.9999C102.727 51.9999 98.984 47.7877 97.5723 44.3429L102.478 42.2749C103.352 44.3898 105.493 46.8855 108.941 46.8855C113.17 46.8855 115.791 44.2434 115.791 39.2695V37.4007H115.594C114.333 38.9766 111.903 40.3533 108.837 40.3533C102.421 40.3533 96.5425 34.6941 96.5425 27.412C96.5425 20.0772 102.421 14.3711 108.837 14.3711C111.897 14.3711 114.327 15.7478 115.594 17.2769H115.791V15.162H121.142V15.1561ZM116.19 27.412C116.19 22.8366 113.176 19.4914 109.34 19.4914C105.452 19.4914 102.195 22.8366 102.195 27.412C102.195 31.9406 105.452 35.2389 109.34 35.2389C113.176 35.2389 116.19 31.9406 116.19 27.412Z" fill="#4285F4"/>
<path d="M129.965 1.48242V39.5624H124.469V1.48242H129.965Z" fill="#34A853"/>
<path d="M151.383 31.6418L155.757 34.5945C154.345 36.7094 150.944 40.3533 145.065 40.3533C137.776 40.3533 132.332 34.6472 132.332 27.3593C132.332 19.632 137.822 14.3652 144.435 14.3652C151.094 14.3652 154.351 19.7316 155.416 22.6315L156 24.1078L138.846 31.302C140.159 33.909 142.202 35.2389 145.065 35.2389C147.935 35.2389 149.925 33.8094 151.383 31.6418ZM137.92 26.9668L149.387 22.1453C148.757 20.5225 146.859 19.3918 144.626 19.3918C141.762 19.3918 137.776 21.9519 137.92 26.9668Z" fill="#EA4335"/>
<path d="M20.2087 23.9845V18.4717H38.5545C38.7338 19.4325 38.8264 20.569 38.8264 21.7993C38.8264 25.9354 37.7098 31.0498 34.1112 34.6938C30.611 38.3846 26.1388 40.353 20.2145 40.353C9.23364 40.353 0 31.2959 0 20.1765C0 9.05717 9.23364 0 20.2145 0C26.2893 0 30.6168 2.41368 33.8682 5.55967L30.0267 9.44969C27.6951 7.23519 24.5363 5.51281 20.2087 5.51281C12.19 5.51281 5.91855 12.0567 5.91855 20.1765C5.91855 28.2963 12.19 34.8402 20.2087 34.8402C25.4099 34.8402 28.372 32.7253 30.2697 30.8038C31.8086 29.2454 32.8211 27.0192 33.2203 23.9787L20.2087 23.9845Z" fill="#4285F4"/>
</svg>
