<svg width="156" height="52" viewBox="0 0 156 52" fill="none" xmlns="http://www.w3.org/2000/svg">
<path d="M66.3858 26.6669C66.3858 33.8847 60.6563 39.2034 53.6248 39.2034C46.5933 39.2034 40.8638 33.8847 40.8638 26.6669C40.8638 19.3982 46.5933 14.1304 53.6248 14.1304C60.6563 14.1304 66.3858 19.3982 66.3858 26.6669ZM60.7997 26.6669C60.7997 22.1565 57.4789 19.0704 53.6248 19.0704C49.7707 19.0704 46.4499 22.1565 46.4499 26.6669C46.4499 31.1321 49.7707 34.2634 53.6248 34.2634C57.4789 34.2634 60.7997 31.1265 60.7997 26.6669Z" fill="#A1B2B8"/>
<path d="M93.9151 26.6669C93.9151 33.8847 88.1856 39.2034 81.1541 39.2034C74.1226 39.2034 68.3931 33.8847 68.3931 26.6669C68.3931 19.4038 74.1226 14.1304 81.1541 14.1304C88.1856 14.1304 93.9151 19.3982 93.9151 26.6669ZM88.3289 26.6669C88.3289 22.1565 85.0082 19.0704 81.1541 19.0704C77.3 19.0704 73.9792 22.1565 73.9792 26.6669C73.9792 31.1321 77.3 34.2634 81.1541 34.2634C85.0082 34.2634 88.3289 31.1265 88.3289 26.6669Z" fill="#A1B2B8"/>
<path d="M120.298 14.8878V37.3947C120.298 46.653 114.757 50.4343 108.208 50.4343C102.042 50.4343 98.3314 46.3704 96.932 43.0469L101.796 41.0517C102.662 43.0921 104.784 45.4999 108.202 45.4999C112.394 45.4999 114.992 42.9508 114.992 38.1521V36.3491H114.797C113.547 37.8695 111.138 39.1978 108.099 39.1978C101.738 39.1978 95.9111 33.7378 95.9111 26.7121C95.9111 19.6356 101.738 14.1304 108.099 14.1304C111.133 14.1304 113.541 15.4586 114.797 16.9338H114.992V14.8934H120.298V14.8878ZM115.388 26.7121C115.388 22.2978 112.4 19.0704 108.598 19.0704C104.743 19.0704 101.515 22.2978 101.515 26.7121C101.515 31.0812 104.743 34.2634 108.598 34.2634C112.4 34.2634 115.388 31.0812 115.388 26.7121Z" fill="#A1B2B8"/>
<path d="M129.044 1.6958V38.4349H123.596V1.6958H129.044Z" fill="#A1B2B8"/>
<path d="M150.276 30.7928L154.612 33.6415C153.213 35.6819 149.841 39.1976 144.014 39.1976C136.787 39.1976 131.39 33.6923 131.39 26.661C131.39 19.2058 136.833 14.1245 143.388 14.1245C149.99 14.1245 153.219 19.3019 154.274 22.0997L154.853 23.5241L137.848 30.4649C139.15 32.9802 141.175 34.2632 144.014 34.2632C146.858 34.2632 148.831 32.8841 150.276 30.7928ZM136.93 26.2823L148.298 21.6306C147.673 20.0649 145.791 18.9741 143.578 18.9741C140.739 18.9741 136.787 21.4441 136.93 26.2823Z" fill="#A1B2B8"/>
<path d="M20.2399 23.4056V18.0869H38.4265C38.6043 19.0139 38.6961 20.1104 38.6961 21.2974C38.6961 25.2878 37.5892 30.2221 34.0218 33.7378C30.552 37.2987 26.1186 39.1978 20.2457 39.1978C9.36007 39.1978 0.206543 30.4595 0.206543 19.7317C0.206543 9.00389 9.36007 0.265625 20.2457 0.265625C26.2677 0.265625 30.5577 2.59432 33.781 5.62954L29.9727 9.38258C27.6614 7.24606 24.5299 5.58432 20.2399 5.58432C12.2908 5.58432 6.07375 11.8978 6.07375 19.7317C6.07375 27.5656 12.2908 33.8791 20.2399 33.8791C25.396 33.8791 28.3324 31.8387 30.2136 29.9848C31.7392 28.4813 32.7429 26.3335 33.1386 23.4L20.2399 23.4056Z" fill="#A1B2B8"/>
</svg>
