<svg width="28" height="29" viewBox="0 0 28 29" fill="none" xmlns="http://www.w3.org/2000/svg">
<path opacity="0.1" fill-rule="evenodd" clip-rule="evenodd" d="M0 14.0017C0 6.26972 6.26801 0.00170898 14 0.00170898C21.732 0.00170898 28 6.26972 28 14.0017C28 21.7337 21.732 28.0017 14 28.0017C6.26801 28.0017 0 21.7337 0 14.0017Z" fill="#0C1939"/>
<path fill-rule="evenodd" clip-rule="evenodd" d="M14.0002 7.60181C12.2621 7.60181 12.0439 7.60941 11.3612 7.64047C10.6799 7.67167 10.2148 7.77954 9.8079 7.93781C9.38696 8.10128 9.02989 8.31995 8.67415 8.67582C8.31815 9.03155 8.09948 9.38862 7.93548 9.80943C7.77681 10.2165 7.66881 10.6817 7.63814 11.3628C7.60761 12.0455 7.59961 12.2637 7.59961 14.0019C7.59961 15.74 7.60734 15.9575 7.63828 16.6402C7.66961 17.3215 7.77748 17.7866 7.93561 18.1935C8.09921 18.6145 8.31788 18.9715 8.67375 19.3273C9.02936 19.6833 9.38643 19.9025 9.8071 20.0659C10.2143 20.2242 10.6795 20.3321 11.3607 20.3633C12.0434 20.3943 12.2614 20.4019 13.9994 20.4019C15.7377 20.4019 15.9552 20.3943 16.6378 20.3633C17.3192 20.3321 17.7848 20.2242 18.192 20.0659C18.6128 19.9025 18.9693 19.6833 19.3249 19.3273C19.6809 18.9715 19.8996 18.6145 20.0636 18.1936C20.2209 17.7866 20.3289 17.3214 20.3609 16.6403C20.3916 15.9576 20.3996 15.74 20.3996 14.0019C20.3996 12.2637 20.3916 12.0456 20.3609 11.3629C20.3289 10.6816 20.2209 10.2165 20.0636 9.80956C19.8996 9.38863 19.6809 9.03155 19.3249 8.67582C18.9689 8.31981 18.6129 8.10115 18.1916 7.93781C17.7836 7.77954 17.3182 7.67167 16.6369 7.64047C15.9542 7.60941 15.7369 7.60181 13.9982 7.60181H14.0002ZM13.426 8.75513C13.5964 8.75487 13.7866 8.75513 14.0002 8.75513C15.709 8.75513 15.9115 8.76127 16.5863 8.79193C17.2103 8.82047 17.549 8.92474 17.7746 9.01234C18.0733 9.12834 18.2862 9.26701 18.5101 9.49101C18.7341 9.71501 18.8728 9.92835 18.989 10.227C19.0766 10.4524 19.181 10.791 19.2094 11.415C19.2401 12.0897 19.2468 12.2924 19.2468 14.0004C19.2468 15.7084 19.2401 15.9111 19.2094 16.5857C19.1809 17.2098 19.0766 17.5484 18.989 17.7738C18.873 18.0724 18.7341 18.2851 18.5101 18.509C18.2861 18.733 18.0734 18.8716 17.7746 18.9876C17.5493 19.0756 17.2103 19.1796 16.5863 19.2082C15.9117 19.2388 15.709 19.2455 14.0002 19.2455C12.2912 19.2455 12.0887 19.2388 11.414 19.2082C10.79 19.1794 10.4513 19.0751 10.2256 18.9875C9.92694 18.8715 9.7136 18.7328 9.4896 18.5088C9.2656 18.2848 9.12693 18.072 9.01066 17.7732C8.92306 17.5479 8.81866 17.2092 8.79026 16.5852C8.75959 15.9105 8.75346 15.7079 8.75346 13.9988C8.75346 12.2897 8.75959 12.0881 8.79026 11.4134C8.81879 10.7894 8.92306 10.4508 9.01066 10.2251C9.12666 9.92648 9.2656 9.71314 9.4896 9.48914C9.7136 9.26514 9.92694 9.12647 10.2256 9.0102C10.4512 8.9222 10.79 8.8182 11.414 8.78953C12.0044 8.76287 12.2332 8.75487 13.426 8.75353V8.75513ZM17.4165 9.81781C16.9925 9.81781 16.6485 10.1614 16.6485 10.5856C16.6485 11.0096 16.9925 11.3536 17.4165 11.3536C17.8405 11.3536 18.1845 11.0096 18.1845 10.5856C18.1845 10.1616 17.8405 9.81781 17.4165 9.81781ZM14.0002 10.7152C12.1851 10.7152 10.7135 12.1868 10.7135 14.0019C10.7135 15.8169 12.1851 17.2879 14.0002 17.2879C15.8153 17.2879 17.2864 15.8169 17.2864 14.0019C17.2864 12.1868 15.8153 10.7152 14.0002 10.7152ZM14.0002 11.8685C15.1783 11.8685 16.1336 12.8236 16.1336 14.0019C16.1336 15.18 15.1783 16.1352 14.0002 16.1352C12.8219 16.1352 11.8668 15.18 11.8668 14.0019C11.8668 12.8236 12.8219 11.8685 14.0002 11.8685Z" fill="#0C1939"/>
</svg>
