<svg width="253" height="99" viewBox="0 0 253 99" fill="none" xmlns="http://www.w3.org/2000/svg">
<path d="M253 69C244.167 73.5 222.3 80.9 205.5 74.5C184.5 66.5 147.5 54.5 111.5 89C82.7 116.6 47 73.5 32 47" stroke="#173E4D" stroke-width="2" stroke-dasharray="2 2"/>
<path d="M42.9219 47.3647L30.3648 44.0001L27.0002 56.5571" stroke="#173E4D" stroke-width="2"/>
<circle cx="21" cy="21" r="21" fill="#173E4D" fill-opacity="0.15"/>
<path d="M28 17.9999C28.0004 16.7948 27.6898 15.61 27.098 14.5602C26.5063 13.5104 25.6536 12.6311 24.6224 12.0075C23.5912 11.3838 22.4165 11.037 21.2119 11.0005C20.0074 10.964 18.8138 11.2391 17.7468 11.7992C16.6797 12.3593 15.7753 13.1853 15.1212 14.1974C14.467 15.2095 14.0852 16.3733 14.0127 17.5763C13.9402 18.7792 14.1795 19.9804 14.7074 21.0637C15.2353 22.1471 16.0339 23.0757 17.026 23.7599L14 28.9999L16.256 29.0929L17.464 30.9999L20.93 24.9959C20.954 24.9959 20.976 24.9999 21 24.9999C21.024 24.9999 21.046 24.9969 21.07 24.9959L24.536 30.9999L25.768 29.1339L28 28.9999L24.974 23.7599C25.9076 23.1171 26.6709 22.2569 27.198 21.2534C27.7252 20.25 28.0004 19.1334 28 17.9999ZM16 17.9999C16 17.011 16.2932 16.0443 16.8427 15.222C17.3921 14.3998 18.173 13.7589 19.0866 13.3805C20.0002 13.0021 21.0055 12.903 21.9755 13.096C22.9454 13.2889 23.8363 13.7651 24.5355 14.4644C25.2348 15.1636 25.711 16.0545 25.9039 17.0244C26.0969 17.9943 25.9978 18.9997 25.6194 19.9133C25.241 20.8269 24.6001 21.6078 23.7779 22.1572C22.9556 22.7066 21.9889 22.9999 21 22.9999C19.6739 22.9999 18.4021 22.4731 17.4645 21.5354C16.5268 20.5977 16 19.326 16 17.9999Z" fill="#173E4D"/>
<path d="M21 21C22.6569 21 24 19.6569 24 18C24 16.3431 22.6569 15 21 15C19.3431 15 18 16.3431 18 18C18 19.6569 19.3431 21 21 21Z" fill="#173E4D"/>
</svg>
