<svg width="147" height="23" viewBox="0 0 147 23" fill="none" xmlns="http://www.w3.org/2000/svg">
<path d="M11.2747 4.22054V11.8485H3.58917V4.22054H0V22.729H3.58917V15.1397H11.2747V22.729H14.8639V4.22054H11.2747Z" fill="white"/>
<path d="M41.8994 23C36.7107 23 32.3413 19.2441 32.3413 13.4747C32.3413 7.70539 36.7497 3.94949 42.0165 3.94949C44.5133 3.94949 47.5953 4.84007 49.5459 7.97643L46.9321 9.75758C45.6837 8.05387 43.9281 7.31818 42.0555 7.31818C38.7004 7.31818 36.0085 9.64141 36.0085 13.436C36.0085 17.2306 38.6614 19.67 42.0555 19.67C44.3572 19.67 46.4249 18.5859 46.9711 15.7205H42.4846V12.7778H50.4432C51.3015 19.1667 47.0491 23 41.8994 23Z" fill="white"/>
<path d="M68.8965 4.22054V22.729H65.2683V15.1397H57.6218V22.729H53.9937V4.22054H57.6218V11.8485H65.2683V4.22054H68.8965Z" fill="white"/>
<path d="M84.0335 19.4377V22.729H73.1489V4.22054H76.7381V19.4377H84.0335Z" fill="white"/>
<path d="M91.3289 4.22054H87.7397V22.729H91.3289V4.22054Z" fill="white"/>
<path d="M104.359 23C99.1702 23 94.8008 19.2441 94.8008 13.4747C94.8008 7.70539 99.2092 3.94949 104.476 3.94949C106.973 3.94949 110.055 4.84007 112.005 7.97643L109.392 9.75758C108.143 8.05387 106.388 7.31818 104.515 7.31818C101.16 7.31818 98.468 9.64141 98.468 13.436C98.468 17.2306 101.121 19.67 104.515 19.67C106.817 19.67 108.884 18.5859 109.431 15.7205H104.944V12.7778H112.903C113.761 19.1667 109.509 23 104.359 23Z" fill="white"/>
<path d="M131.317 4.22054V22.729H127.728V15.1397H120.042V22.729H116.453V4.22054H120.042V11.8485H127.728V4.22054H131.317Z" fill="white"/>
<path d="M147 7.51178H142.514V22.729H138.885V7.51178H134.399V4.22054H147V7.51178Z" fill="white"/>
<path d="M26.0214 4.06565C25.5533 4.3367 25.0071 4.49158 24.4219 4.49158C23.8367 4.49158 23.2905 4.29798 22.8224 4.02693L17.9458 22.8451L30.1178 23.0387L26.0214 4.06565Z" fill="#FBDF46"/>
<path d="M24.4609 0C25.2802 0 25.9434 0.69697 25.9434 1.5101C25.9434 2.32323 25.2412 2.98148 24.4219 2.98148C23.6027 2.98148 22.9395 2.28451 22.9395 1.47138C22.9395 0.658249 23.6417 0 24.4609 0Z" fill="#FBDF46"/>
</svg>
