<svg width="28" height="29" viewBox="0 0 28 29" fill="none" xmlns="http://www.w3.org/2000/svg">
<path opacity="0.1" fill-rule="evenodd" clip-rule="evenodd" d="M0 14.0017C0 6.26972 6.26801 0.00170898 14 0.00170898C21.732 0.00170898 28 6.26972 28 14.0017C28 21.7337 21.732 28.0017 14 28.0017C6.26801 28.0017 0 21.7337 0 14.0017Z" fill="#0C1939"/>
<g clip-path="url(#clip0_266_6957)">
<path d="M19.9967 20.0018V20.0013H19.9997V15.6003C19.9997 13.4473 19.5362 11.7888 17.0192 11.7888C15.8092 11.7888 14.9971 12.4528 14.6656 13.0823H14.6306V11.9898H12.2441V20.0013H14.7291V16.0343C14.7291 14.9898 14.9271 13.9798 16.2207 13.9798C17.4952 13.9798 17.5142 15.1718 17.5142 16.1013V20.0018H19.9967Z" fill="#0C1939"/>
<path d="M8.19824 11.9902H10.6862V20.0017H8.19824V11.9902Z" fill="#0C1939"/>
<path d="M9.441 8.00171C8.6455 8.00171 8 8.64721 8 9.44271C8 10.2382 8.6455 10.8972 9.441 10.8972C10.2365 10.8972 10.882 10.2382 10.882 9.44271C10.8815 8.64721 10.236 8.00171 9.441 8.00171V8.00171Z" fill="#0C1939"/>
</g>
<defs>
<clipPath id="clip0_266_6957">
<rect width="12" height="12" fill="white" transform="translate(8 8.00171)"/>
</clipPath>
</defs>
</svg>
