<svg width="24" height="24" viewBox="0 0 24 24" fill="none" xmlns="http://www.w3.org/2000/svg">
<path fill-rule="evenodd" clip-rule="evenodd" d="M0 12C0 5.37258 5.37258 0 12 0C18.6274 0 24 5.37258 24 12C24 18.6274 18.6274 24 12 24C5.37258 24 0 18.6274 0 12Z" fill="#0C1939"/>
<g clip-path="url(#clip0_89:163)">
<path d="M17.1404 17.1427V17.1423H17.143V13.37C17.143 11.5246 16.7457 10.103 14.5882 10.103C13.5511 10.103 12.8551 10.6722 12.5709 11.2117H12.5409V10.2753H10.4954V17.1423H12.6254V13.742C12.6254 12.8467 12.7951 11.981 13.9038 11.981C14.9962 11.981 15.0125 13.0027 15.0125 13.7995V17.1427H17.1404Z" fill="#FAFAFA"/>
<path d="M7.02686 10.2759H9.15943V17.1429H7.02686V10.2759Z" fill="#FAFAFA"/>
<path d="M8.09232 6.85693C7.41046 6.85693 6.85718 7.41022 6.85718 8.09208C6.85718 8.77393 7.41046 9.33879 8.09232 9.33879C8.77418 9.33879 9.32746 8.77393 9.32746 8.09208C9.32703 7.41022 8.77375 6.85693 8.09232 6.85693V6.85693Z" fill="#FAFAFA"/>
</g>
<defs>
<clipPath id="clip0_89:163">
<rect width="10.2857" height="10.2857" fill="white" transform="translate(6.85718 6.85693)"/>
</clipPath>
</defs>
</svg>
