<svg width="48" height="44" viewBox="0 0 48 44" fill="none" xmlns="http://www.w3.org/2000/svg">
<path fill-rule="evenodd" clip-rule="evenodd" d="M35.9533 31.1407C33.6002 32.4813 31.2377 33.8125 28.8658 35.1344C27.6658 35.8 26.4658 36.4563 25.2658 37.1313C24.7689 37.4125 24.2439 37.8625 23.6627 37.9656C23.0627 38.0688 22.5096 37.7688 21.9658 37.5625C20.5502 37.0094 19.1064 36.475 17.6908 35.9313C16.8377 35.6032 17.1752 34.5907 17.6158 34.1032C18.2346 33.4188 19.3314 34.0282 19.9783 34.3282C20.9627 34.7875 22.0033 35.0594 23.0346 35.3875C25.3314 36.1281 27.7314 32.3969 25.5752 30.925C24.7783 30.3907 23.6346 30.1188 22.7346 29.7625C20.7658 28.9844 18.7877 28.2157 16.8377 27.3907C15.5439 26.8469 14.2408 26.1344 12.8346 25.9563C11.5314 25.7969 10.0221 26.0219 8.76582 26.3875C8.07207 26.5844 7.28457 26.9313 6.73145 27.4C6.35645 27.7188 6.0377 28.2063 5.8877 28.675V39.175C5.8877 39.175 5.95332 39.775 6.55332 39.6344C8.3252 39.2219 10.4346 39.3438 12.1971 39.7282C13.8564 40.0938 15.3658 40.9938 16.9314 41.6219C18.6658 42.3156 20.4471 42.8688 22.2002 43.4875C25.0971 44.5094 27.1596 42.0438 29.4564 40.75C32.2596 39.175 35.0533 37.5813 37.8471 36.0063C38.3158 35.7438 38.7752 35.4813 39.2439 35.2188C39.9658 34.8063 40.6596 33.2969 40.5846 32.5188C40.3689 30.1 37.5283 30.2407 35.9533 31.1407Z" fill="#FAFAFA"/>
<path fill-rule="evenodd" clip-rule="evenodd" d="M4.04062 28.6467H1.6875C1.06875 28.6467 0.5625 29.153 0.5625 29.7717V38.5186C0.5625 39.1374 1.06875 39.6436 1.6875 39.6436H4.04062C4.65937 39.6436 5.16562 39.1374 5.16562 38.5186V29.7717C5.16562 29.153 4.65937 28.6467 4.04062 28.6467ZM3.46875 31.2249C3 31.2249 2.625 30.8499 2.625 30.3811C2.625 29.9124 3 29.5374 3.46875 29.5374C3.9375 29.5374 4.3125 29.9124 4.3125 30.3811C4.3125 30.8405 3.92812 31.2249 3.46875 31.2249Z" fill="#FAFAFA"/>
<path d="M47.4375 22.5813H8.10938V24.1844H47.4375V22.5813Z" fill="#FAFAFA"/>
<path fill-rule="evenodd" clip-rule="evenodd" d="M11.5027 21.7187C11.5309 21.4656 11.5777 21.0718 11.6527 20.6593C11.6715 20.575 11.6809 20.4906 11.6996 20.3968C11.7184 20.3031 11.7371 20.2093 11.7652 20.1156C11.8121 19.9187 11.859 19.7031 11.9059 19.4781C11.934 19.3656 11.9621 19.2437 11.9902 19.1312C12.0277 19.0093 12.0559 18.8875 12.0934 18.7656C12.1684 18.5125 12.2434 18.25 12.3184 17.9781C12.5059 17.4343 12.6934 16.8437 12.9465 16.2437C13.0121 16.0937 13.0684 15.9343 13.134 15.7843C13.209 15.6343 13.2746 15.475 13.3496 15.325C13.4246 15.1656 13.4996 15.0156 13.5652 14.8562C13.6402 14.6968 13.7246 14.5468 13.809 14.3875C13.8934 14.2281 13.9777 14.0687 14.0621 13.9093C14.1465 13.75 14.2496 13.6 14.334 13.4406C14.4277 13.2812 14.5215 13.1312 14.6152 12.9718C14.7184 12.8125 14.8215 12.6625 14.9246 12.5125C15.0277 12.3625 15.1309 12.2031 15.234 12.0531C15.3465 11.9031 15.459 11.7531 15.5715 11.6031C15.7871 11.3031 16.0309 11.0125 16.2652 10.7312C16.3777 10.5812 16.509 10.45 16.6309 10.3093C16.7527 10.1687 16.884 10.0375 17.0059 9.89683C17.1371 9.76558 17.2684 9.63433 17.3902 9.50308C17.5215 9.37183 17.6434 9.24058 17.784 9.1187C17.9152 8.99683 18.0465 8.87495 18.1777 8.7437C18.309 8.62183 18.4496 8.50933 18.5809 8.38745C18.8434 8.15308 19.1246 7.93745 19.3871 7.72183C19.5184 7.60933 19.659 7.51558 19.7902 7.41245C19.9309 7.30933 20.0621 7.2062 20.1934 7.12183C20.4652 6.93433 20.7277 6.74683 20.9902 6.58745C21.5152 6.24995 22.0309 5.95933 22.509 5.69683C22.9871 5.4437 23.4371 5.22808 23.8402 5.04995C24.2434 4.87183 24.5996 4.7312 24.8902 4.6187C25.4809 4.3937 25.8277 4.30933 25.8277 4.30933C25.8277 4.30933 25.4902 4.4312 24.9277 4.71245C24.3652 4.98433 23.5777 5.41558 22.6871 6.01558C22.2465 6.31558 21.7684 6.65308 21.2902 7.02808C21.0465 7.21558 20.8121 7.42183 20.559 7.62808C20.4371 7.7312 20.3152 7.8437 20.1934 7.9562C20.0715 8.0687 19.9496 8.17183 19.8277 8.2937C19.5934 8.52808 19.3402 8.76245 19.1059 9.01558C18.9934 9.13745 18.8621 9.25933 18.7496 9.39058C18.6371 9.52183 18.5246 9.65308 18.4027 9.78433C18.2809 9.91558 18.1777 10.0468 18.0652 10.1875C17.9527 10.3281 17.8402 10.4593 17.7371 10.6C17.634 10.7406 17.5309 10.8812 17.4184 11.0218C17.3152 11.1625 17.2027 11.3031 17.109 11.4531C16.9121 11.7531 16.7059 12.0343 16.5371 12.3437C16.4434 12.4937 16.359 12.6437 16.2652 12.7937C16.1809 12.9437 16.0965 13.1031 16.0121 13.2531C15.9277 13.4031 15.8434 13.5531 15.7684 13.7125C15.6934 13.8718 15.6184 14.0218 15.5527 14.1718C15.4777 14.3218 15.4027 14.4718 15.3371 14.6312C15.2715 14.7812 15.2059 14.9406 15.1496 15.0906C15.084 15.2406 15.0184 15.3906 14.9621 15.5406C14.9059 15.6906 14.859 15.8406 14.8027 15.9906C14.7465 16.1406 14.6996 16.2906 14.6434 16.4312C14.5965 16.5812 14.559 16.7218 14.5121 16.8718C14.3246 17.4437 14.2121 18.0062 14.0902 18.5125C14.0434 18.775 13.9965 19.0187 13.959 19.2531C13.9402 19.375 13.9121 19.4874 13.8934 19.6C13.8746 19.7125 13.8652 19.825 13.8465 19.9281C13.8184 20.1437 13.7902 20.3406 13.7715 20.5187C13.7621 20.6124 13.7527 20.6968 13.734 20.7812C13.7246 20.8656 13.7246 20.95 13.7152 21.025C13.6871 21.3531 13.6684 21.5968 13.659 21.7656H45.909C45.909 21.6906 45.909 21.6156 45.909 21.5406C45.909 11.4531 38.1184 3.2312 28.3777 2.88433V1.78745C29.334 1.6937 30.0277 1.3937 30.0277 1.04683C30.0277 0.624951 28.9965 0.278076 27.7309 0.278076C26.4652 0.278076 25.434 0.624951 25.434 1.04683C25.434 1.3937 26.1277 1.6937 27.084 1.78745V2.83745C17.3434 3.18433 9.55273 11.4062 9.55273 21.4937C9.55273 21.5687 9.55273 21.6437 9.55273 21.7187H11.5027ZM35.0996 6.40933C35.2402 6.4562 35.409 6.5312 35.5965 6.61558C35.784 6.69995 35.9996 6.80308 36.2246 6.92495C36.4496 7.04683 36.6934 7.18745 36.9371 7.34683C37.059 7.42183 37.1902 7.51558 37.3121 7.59995C37.3777 7.64683 37.434 7.6937 37.4996 7.74058C37.5652 7.78745 37.6309 7.83433 37.6871 7.8812C37.809 7.98433 37.9402 8.08745 38.0715 8.19058C38.1371 8.24683 38.2027 8.30308 38.259 8.35933C38.3246 8.41558 38.3809 8.47183 38.4465 8.53745C38.5121 8.5937 38.5684 8.65933 38.634 8.71558C38.6902 8.7812 38.7559 8.83745 38.8121 8.90308C38.8684 8.9687 38.9246 9.03433 38.9902 9.09995C39.0465 9.16558 39.1121 9.2312 39.159 9.29683C39.2715 9.43745 39.384 9.5687 39.4871 9.70933C39.5434 9.78433 39.5902 9.84995 39.6465 9.92495C39.6934 9.99995 39.7402 10.0656 39.7965 10.1406C39.8434 10.2156 39.8902 10.2812 39.9371 10.3562C39.984 10.4312 40.0215 10.5062 40.0684 10.5812C40.1152 10.6562 40.1621 10.7312 40.1996 10.8062C40.2371 10.8812 40.2746 10.9562 40.3215 11.0312C40.359 11.1062 40.4059 11.1812 40.434 11.2562C40.4715 11.3312 40.4996 11.4062 40.5371 11.4812C40.5746 11.5562 40.6027 11.6312 40.6402 11.6968C40.6684 11.7718 40.6965 11.8468 40.7246 11.9125C40.8465 12.1937 40.9309 12.475 41.0246 12.7281C41.0621 12.8593 41.0996 12.9812 41.1277 13.1031C41.1465 13.1593 41.1652 13.2156 41.1746 13.2718C41.184 13.3281 41.2027 13.3843 41.2121 13.4406C41.2402 13.5437 41.259 13.6468 41.2777 13.7406C41.2871 13.7875 41.2965 13.8343 41.3059 13.8718C41.3152 13.9187 41.3246 13.9562 41.3246 13.9937C41.3809 14.3031 41.409 14.6125 41.409 14.6125L40.3684 14.5937C40.3684 14.5937 40.359 14.4343 40.3309 14.1437C40.3309 14.1062 40.3215 14.0687 40.3215 14.0312C40.3121 13.9937 40.3121 13.9468 40.3027 13.9093C40.2934 13.825 40.284 13.7312 40.2652 13.6281C40.2559 13.5812 40.2559 13.525 40.2465 13.4781C40.2371 13.4218 40.2277 13.375 40.2184 13.3187C40.1996 13.2062 40.1809 13.0937 40.1527 12.9718C40.0965 12.7375 40.0402 12.4656 39.9559 12.2031C39.9371 12.1375 39.9184 12.0625 39.8902 11.9968C39.8621 11.9312 39.8434 11.8562 39.8152 11.7906C39.7871 11.725 39.7684 11.65 39.7402 11.575C39.7121 11.5 39.684 11.4343 39.6559 11.3593C39.6277 11.2843 39.5996 11.2187 39.5621 11.1437C39.534 11.0687 39.4965 11.0031 39.459 10.9281C39.4215 10.8531 39.3934 10.7875 39.3559 10.7125C39.3184 10.6375 39.2809 10.5718 39.2434 10.4968C39.2059 10.4218 39.1684 10.3562 39.1215 10.2812C39.0746 10.2156 39.0371 10.1406 38.9902 10.0656C38.9059 9.92495 38.8121 9.78433 38.7184 9.6437C38.6715 9.57808 38.6246 9.51245 38.5777 9.43745C38.5309 9.37183 38.4746 9.3062 38.4277 9.24058C38.3715 9.17495 38.3246 9.10933 38.2684 9.0437C38.2121 8.97808 38.1652 8.91245 38.109 8.8562C38.0527 8.79058 37.9965 8.73433 37.9496 8.6687C37.8934 8.60308 37.8371 8.54683 37.7809 8.49058C37.6684 8.3687 37.5559 8.26558 37.4434 8.15308C37.3871 8.09683 37.3309 8.04995 37.2746 7.9937C37.2184 7.94683 37.1621 7.89058 37.1059 7.8437C36.9934 7.74995 36.8809 7.64683 36.7684 7.56245C36.5434 7.38433 36.3184 7.22495 36.1121 7.08433C35.6902 6.80308 35.3246 6.6062 35.0621 6.47495C34.7996 6.3437 34.6402 6.28745 34.6402 6.28745C34.6402 6.28745 34.8277 6.3062 35.0996 6.40933Z" fill="#FAFAFA"/>
</svg>
