<svg width="48" height="48" viewBox="0 0 48 48" fill="none" xmlns="http://www.w3.org/2000/svg">
<path d="M24.0006 0C17.9136 0 12.3726 2.286 8.14258 6.018L16.6776 14.553C18.7086 12.978 21.2286 12 24.0006 12C26.7726 12 29.2926 12.978 31.3236 14.556L39.8586 6.021C35.6286 2.286 30.0876 0 24.0006 0Z" fill="#FAFAFA"/>
<path d="M16.6776 33.4438L8.14258 41.9788C12.3726 45.7138 17.9136 47.9998 24.0006 47.9998C30.0876 47.9998 35.6286 45.7138 39.8586 41.9818L31.3236 33.4468C29.2926 35.0218 26.7726 35.9998 24.0006 35.9998C21.2286 35.9998 18.7086 35.0218 16.6776 33.4438Z" fill="#FAFAFA"/>
<path d="M33.4443 16.6773C35.0223 18.7083 36.0003 21.2283 36.0003 24.0003C36.0003 26.7723 35.0223 29.2923 33.4443 31.3233L41.9793 39.8583C45.7143 35.6283 48.0003 30.0873 48.0003 24.0003C48.0003 17.9133 45.7143 12.3723 41.9823 8.14233L33.4443 16.6773Z" fill="#FAFAFA"/>
<path d="M14.556 31.3233C12.978 29.2923 12 26.7723 12 24.0003C12 21.2283 12.978 18.7083 14.556 16.6773L6.018 8.14233C2.286 12.3723 0 17.9133 0 24.0003C0 30.0873 2.286 35.6283 6.018 39.8583L14.556 31.3233Z" fill="#FAFAFA"/>
</svg>
