<svg width="41" height="42" viewBox="0 0 41 42" fill="none" xmlns="http://www.w3.org/2000/svg">
<path d="M17.8429 28.3725H17.8954L18.5404 28.5525H18.6679L19.2754 28.6725H19.4479L20.0404 28.7475H20.2279C20.4829 28.7475 20.7379 28.7475 20.9779 28.7475V30.2475C19.5322 30.2425 18.1028 29.9413 16.7779 29.3625C16.5677 29.7367 16.4712 30.1642 16.5004 30.5925C16.5004 32.145 18.5254 33 21.0004 33C23.4754 33 25.5004 32.145 25.5004 30.5925C25.4625 29.9154 25.161 29.2801 24.6604 28.8225C24.6116 28.7755 24.575 28.7172 24.5541 28.6528C24.5331 28.5883 24.5283 28.5197 24.5402 28.453C24.5521 28.3862 24.5802 28.3234 24.6221 28.2702C24.664 28.2169 24.7184 28.1748 24.7804 28.1475C30.5254 25.8975 34.7254 18.9675 34.7254 12.3975C34.7479 4.4025 28.5979 0 21.0004 0C13.4029 0 7.25293 4.4025 7.25293 12.375C7.25293 19.2075 11.7679 26.4375 17.8429 28.3725ZM25.0204 14.01H23.7229L26.4454 17.4H24.4804L27.3754 21H22.7779C22.7043 21 22.6338 21.0292 22.5817 21.0813C22.5297 21.1333 22.5004 21.2039 22.5004 21.2775V24H19.5004V22.5H20.2504C20.4493 22.5 20.6401 22.421 20.7808 22.2803C20.9214 22.1397 21.0004 21.9489 21.0004 21.75C21.0004 21.5511 20.9214 21.3603 20.7808 21.2197C20.6401 21.079 20.4493 21 20.2504 21H14.6254L17.5129 17.4H15.5629L18.2854 14.01H16.9804L21.0004 9L25.0204 14.01ZM11.2504 10.305C11.9479 6.42 15.0004 3.6825 19.2829 3.105C19.4962 3.07593 19.7132 3.09311 19.9193 3.15536C20.1254 3.21761 20.3156 3.32348 20.4771 3.46578C20.6386 3.60808 20.7676 3.78347 20.8553 3.98004C20.943 4.17661 20.9874 4.38976 20.9854 4.605C20.9893 4.96786 20.8614 5.31981 20.6256 5.59562C20.3898 5.87143 20.062 6.0524 19.7029 6.105C17.2054 6.45 14.7229 7.83 14.1979 10.845C14.1104 11.2203 13.8818 11.5475 13.5595 11.7588C13.2372 11.9701 12.8459 12.0492 12.4668 11.9798C12.0877 11.9103 11.7499 11.6976 11.5235 11.3858C11.297 11.074 11.1992 10.687 11.2504 10.305Z" fill="#FAFAFA"/>
<path d="M5.80537 32.445C6.07537 32.445 6.35287 32.445 6.63787 32.445H7.14787C7.21121 32.4473 7.27414 32.4341 7.33123 32.4066C7.38832 32.3791 7.43785 32.338 7.47552 32.2871C7.51319 32.2361 7.53787 32.1767 7.54743 32.1141C7.55698 32.0514 7.55113 31.9874 7.53037 31.9275C7.32728 31.2945 7.26969 30.6238 7.36189 29.9654C7.45409 29.307 7.6937 28.6779 8.06287 28.125C8.10097 28.0654 8.12215 27.9966 8.12415 27.9259C8.12614 27.8552 8.10889 27.7853 8.07422 27.7237C8.03955 27.6621 7.98877 27.611 7.92732 27.576C7.86588 27.541 7.79607 27.5234 7.72537 27.525H6.18787C6.11273 27.5246 6.03903 27.5456 5.97532 27.5854C5.9116 27.6252 5.86048 27.6823 5.82787 27.75C5.16558 29.1298 5.0064 30.6977 5.37787 32.1825C5.4081 32.2687 5.46712 32.3419 5.54498 32.3897C5.62284 32.4375 5.7148 32.457 5.80537 32.445Z" fill="#FAFAFA"/>
<path d="M36.8554 9.00001H38.3929C38.468 9.00036 38.5417 8.97941 38.6055 8.93959C38.6692 8.89977 38.7203 8.8427 38.7529 8.77501C39.4152 7.39519 39.5744 5.82728 39.2029 4.34251C39.1771 4.25349 39.121 4.17628 39.0443 4.12424C38.9676 4.0722 38.8752 4.0486 38.7829 4.05751C38.5129 4.05751 38.2354 4.05751 37.9504 4.05751H37.4404C37.3771 4.05523 37.3141 4.06842 37.257 4.09594C37.2 4.12346 37.1504 4.16448 37.1128 4.21544C37.0751 4.26641 37.0504 4.32579 37.0408 4.38844C37.0313 4.45109 37.0371 4.51513 37.0579 4.57501C37.261 5.20804 37.3186 5.87875 37.2264 6.53714C37.1342 7.19552 36.8946 7.82461 36.5254 8.37751C36.4814 8.43668 36.455 8.50713 36.4494 8.58068C36.4438 8.65424 36.4591 8.72787 36.4937 8.79305C36.5282 8.85823 36.5805 8.91227 36.6446 8.9489C36.7086 8.98553 36.7817 9.00325 36.8554 9.00001Z" fill="#FAFAFA"/>
<path d="M2.25 22.5C3.49264 22.5 4.5 21.4926 4.5 20.25C4.5 19.0074 3.49264 18 2.25 18C1.00736 18 0 19.0074 0 20.25C0 21.4926 1.00736 22.5 2.25 22.5Z" fill="#FAFAFA"/>
<path d="M38.8278 17.3401C39.7515 17.3401 40.5003 16.5913 40.5003 15.6676C40.5003 14.7439 39.7515 13.9951 38.8278 13.9951C37.9041 13.9951 37.1553 14.7439 37.1553 15.6676C37.1553 16.5913 37.9041 17.3401 38.8278 17.3401Z" fill="#FAFAFA"/>
<path d="M3.00035 12.8176C3.42285 12.8176 3.76535 12.4751 3.76535 12.0526C3.76535 11.6301 3.42285 11.2876 3.00035 11.2876C2.57785 11.2876 2.23535 11.6301 2.23535 12.0526C2.23535 12.4751 2.57785 12.8176 3.00035 12.8176Z" fill="#FAFAFA"/>
<path d="M33.765 28.5C34.1875 28.5 34.53 28.1575 34.53 27.735C34.53 27.3125 34.1875 26.97 33.765 26.97C33.3425 26.97 33 27.3125 33 27.735C33 28.1575 33.3425 28.5 33.765 28.5Z" fill="#FAFAFA"/>
<path d="M4.0725 5.145C4.66483 5.145 5.145 4.66483 5.145 4.0725C5.145 3.48017 4.66483 3 4.0725 3C3.48017 3 3 3.48017 3 4.0725C3 4.66483 3.48017 5.145 4.0725 5.145Z" fill="#FAFAFA"/>
<path d="M39.0002 25.5C39.5926 25.5 40.0727 25.0198 40.0727 24.4275C40.0727 23.8352 39.5926 23.355 39.0002 23.355C38.4079 23.355 37.9277 23.8352 37.9277 24.4275C37.9277 25.0198 38.4079 25.5 39.0002 25.5Z" fill="#FAFAFA"/>
<path d="M21.4205 34.8075C21.083 34.8075 20.7605 34.8075 20.438 34.8075C19.856 36.9823 19.7917 39.2633 20.2505 41.4675C20.2861 41.6195 20.3723 41.755 20.4949 41.8517C20.6175 41.9484 20.7693 42.0007 20.9255 42H21.0005C21.1036 42.0014 21.2057 41.9794 21.2991 41.9356C21.3926 41.8919 21.4748 41.8275 21.5398 41.7474C21.6048 41.6673 21.6507 41.5735 21.6742 41.473C21.6977 41.3726 21.6982 41.2681 21.6755 41.1675C21.2555 39.3525 21.368 35.5125 22.0205 34.7925L21.4205 34.8075Z" fill="#FAFAFA"/>
</svg>
