<svg width="48" height="32" viewBox="0 0 48 32" fill="none" xmlns="http://www.w3.org/2000/svg">
<path d="M40.1645 17.2072L35.455 7.76416C35.4017 7.65976 35.3312 7.56256 35.2414 7.4812C35.1514 7.40008 35.0506 7.34056 34.9455 7.30288L29.4231 5.31808C29.0384 5.17984 28.6263 5.10568 28.1974 5.10952C27.769 5.11408 27.3588 5.1964 26.976 5.34208L22.7859 6.94048C22.4909 7.05328 22.1981 7.18288 21.9094 7.33048C21.8129 7.3804 21.7181 7.4344 21.6238 7.48744C21.3075 7.31608 20.9772 7.16512 20.6326 7.03672C19.5334 6.62584 18.4078 6.48712 17.3184 6.58024L14.4994 6.82216C14.3768 6.83272 14.2529 6.87064 14.1372 6.93856C14.0216 7.00672 13.926 7.09864 13.8509 7.20496L7.50339 16.2412C7.37259 16.4267 7.30275 16.6629 7.32411 16.9127C7.34499 17.1626 7.45251 17.3817 7.61139 17.5391L10.3724 20.2754C10.2209 20.5526 10.1249 20.8638 10.1028 21.197C10.063 21.7955 10.2596 22.3734 10.6546 22.8244C11.0501 23.2751 11.5971 23.5451 12.1961 23.5842C12.228 23.5864 12.2604 23.5864 12.2928 23.5876C12.0473 24.3813 12.2482 25.2827 12.8878 25.888C13.2706 26.2504 13.7614 26.4616 14.2829 26.4954C13.9469 27.3282 14.1286 28.3214 14.8152 28.971C15.234 29.368 15.7817 29.5861 16.3589 29.5861C16.9599 29.5861 17.5205 29.3514 17.9439 28.9276C18.1013 29.9447 18.9464 30.7557 20.0151 30.8255C20.0643 30.8289 20.1147 30.831 20.1639 30.831C20.437 30.831 20.6986 30.7794 20.942 30.6887C21.3394 30.9537 21.8132 31.0996 22.3174 31.0792C22.9371 31.0533 23.4929 30.7799 23.9086 30.3522L22.3901 28.8371C22.3937 28.8021 22.4002 28.7685 22.4016 28.7322C22.4213 28.4346 22.3805 28.1466 22.292 27.879L25.3997 30.9789C25.7919 31.1385 26.2186 31.2184 26.6631 31.2004C27.5525 31.1642 28.3448 30.7441 28.9059 30.0942L29.2169 29.7335C29.2457 29.6994 29.2678 29.661 29.287 29.6198L24.5021 24.8481C24.3788 24.7259 24.3689 24.5226 24.4784 24.3947C24.588 24.2675 24.7781 24.2632 24.9005 24.3853L30.5912 30.0601C30.9012 30.1689 31.2332 30.2219 31.578 30.2078C32.36 30.1758 33.0576 29.8065 33.5508 29.2341L34.3023 28.3643C34.4746 28.1637 34.5773 27.893 34.5677 27.5987L29.574 22.6202C29.4521 22.4978 29.4411 22.294 29.5505 22.167C29.6609 22.0396 29.8505 22.0353 29.9727 22.1574L34.9899 27.1602C35.1958 27.2152 35.412 27.2421 35.6343 27.2332C36.2753 27.2073 36.8456 26.9049 37.2492 26.4361L37.4511 26.2024C37.855 25.7346 38.0931 25.101 38.0688 24.412C38.0444 23.7232 37.7636 23.1112 37.3282 22.6768L35.9888 21.3414L36.3272 21.6784L39.9488 18.4082C40.1026 18.2699 40.2142 18.0762 40.255 17.8487C40.2956 17.6214 40.2588 17.397 40.1645 17.2072ZM12.259 22.6161C11.9194 22.594 11.6088 22.4409 11.384 22.1846C11.1593 21.929 11.0484 21.6009 11.071 21.2606C11.114 20.5926 11.6732 20.0697 12.3408 20.0697C12.3692 20.0697 12.398 20.0704 12.4263 20.0721C12.7659 20.0946 13.0764 20.2475 13.3013 20.5038C13.526 20.7599 13.6368 21.0878 13.615 21.4281C13.5684 22.1243 12.9634 22.6631 12.259 22.6161ZM14.4303 25.5321C14.1032 25.5321 13.7921 25.4087 13.5545 25.1838C13.0503 24.7072 13.0229 23.9039 13.4909 23.3961C13.5152 23.3709 14.0124 22.8448 14.251 22.5938L14.3763 22.4606C14.6196 22.2038 14.9484 22.0622 15.3022 22.0622C15.6296 22.0622 15.9408 22.1862 16.178 22.4116C16.4254 22.6454 16.5672 22.9614 16.5764 23.3022C16.5857 23.6418 16.4619 23.9656 16.2281 24.2123L15.8734 24.5874C15.7976 24.6671 15.7162 24.7533 15.6329 24.8411C15.6197 24.856 15.6051 24.8709 15.5924 24.8848C15.5304 24.9498 15.4757 25.0074 15.4332 25.0518C15.409 25.078 15.3848 25.1042 15.3598 25.1296C15.3536 25.1361 15.3488 25.1416 15.3483 25.1423C15.1068 25.3938 14.7802 25.5321 14.4303 25.5321ZM17.276 28.2263C17.0338 28.4778 16.7081 28.6161 16.3584 28.6161C16.0311 28.6161 15.7193 28.492 15.4824 28.2669C14.9784 27.7902 14.9508 26.9872 15.4174 26.4817C15.4284 26.4697 15.7205 26.1606 16.0515 25.8114C16.0515 25.8112 16.0515 25.8112 16.0515 25.8112L16.2972 25.5518C16.7276 25.0962 16.8687 24.9482 16.9162 24.8966C16.9217 24.8915 16.9282 24.8855 16.9328 24.8802L16.9337 24.8795C16.9752 24.8346 16.9995 24.8097 17.0002 24.809C17.2431 24.5522 17.5724 24.4103 17.9264 24.4103C18.2537 24.4103 18.5643 24.5341 18.8021 24.7593C19.0496 24.9935 19.1907 25.3098 19.2 25.6497C19.2094 25.9907 19.0856 26.3142 18.8508 26.5622C18.828 26.5862 17.3252 28.174 17.276 28.2263ZM20.0782 29.8583C19.3769 29.8117 18.8436 29.2036 18.89 28.5028C18.9339 27.8344 19.4909 27.3114 20.1596 27.3114C20.1879 27.3114 20.2167 27.3124 20.245 27.3141C20.946 27.3601 21.4793 27.9683 21.4337 28.6693C21.3876 29.3651 20.7836 29.9046 20.0782 29.8583ZM35.6602 21.0141L25.74 11.1237L25.8519 10.8412C25.9097 10.6938 25.9023 10.5198 25.8176 10.3734C25.7326 10.2275 25.5905 10.1426 25.4417 10.1346L24.7044 10.0905L23.899 10.0427L23.8378 10.9974C23.8371 11.0174 23.6775 13.1884 22.5704 15.1499C21.4354 17.1628 19.9316 17.8569 19.7024 17.9015C19.4463 17.9512 19.1777 17.9985 18.9545 17.9985C18.8012 17.9985 18.6831 17.9769 18.582 17.9306L18.2055 17.7561C18.0476 17.6829 17.9271 17.5485 17.8635 17.3771C17.8016 17.2118 17.8023 17.031 17.8635 16.8662L21.6365 8.58568L22.278 8.16304L22.5365 8.06464H22.536L27.278 6.256C27.576 6.14248 27.8883 6.08296 28.2053 6.08008L28.2317 6.07984C28.5394 6.07984 28.8442 6.13312 29.136 6.23824L34.6587 8.22304L39.3687 17.6658L35.6602 21.0141Z" fill="#FAFAFA"/>
<path d="M41.0275 1.7334L37.2994 3.5922C36.7632 3.86028 36.3283 4.3326 36.1229 4.94604C35.9177 5.55972 35.9813 6.19836 36.2479 6.73572L41.1293 16.5217C41.3969 17.0576 41.869 17.4932 42.4836 17.6977C43.0966 17.9032 43.7352 17.8405 44.2723 17.5727L47.9998 15.7129L41.0275 1.7334ZM44.2627 15.7187C43.7676 15.7187 43.3649 15.3172 43.3649 14.8213C43.3649 14.325 43.7676 13.9225 44.2627 13.9225C44.7588 13.9225 45.1615 14.325 45.1615 14.8213C45.1615 15.3172 44.7588 15.7187 44.2627 15.7187Z" fill="#FAFAFA"/>
<path d="M0 13.5793L3.40848 15.9737C3.89904 16.3189 4.52136 16.4761 5.1588 16.3645C5.79672 16.2533 6.32808 15.8938 6.67248 15.4035L12.9588 6.45486C13.3042 5.96454 13.4614 5.3415 13.3502 4.70454C13.2382 4.06686 12.8801 3.53502 12.389 3.1899L8.98008 0.795898L0 13.5793ZM2.94 13.1199C3.01392 12.6293 3.4716 12.2917 3.96144 12.3653C4.45248 12.4395 4.78968 12.8974 4.71624 13.3877C4.64208 13.8788 4.18488 14.2165 3.69408 14.1418C3.20328 14.0684 2.86584 13.6109 2.94 13.1199Z" fill="#FAFAFA"/>
</svg>
