<svg width="48" height="48" viewBox="0 0 48 48" fill="none" xmlns="http://www.w3.org/2000/svg">
<path d="M18.083 17.999V48H48.083V17.999H18.083ZM44.083 44H22.083V21.999H44.083V44Z" fill="#FAFAFA"/>
<path d="M29.8229 36.3389H36.2099L38.1339 42.0049H40.6189L34.4729 23.9939H31.6659L25.5459 42.0049H27.9509L29.8229 36.3389ZM32.0679 29.3119C32.4149 28.2159 32.7089 27.1209 32.9749 26.0519H33.0289C33.2969 27.0939 33.5639 28.1629 33.9659 29.3389L35.7289 34.5229H30.3039L32.0679 29.3119Z" fill="#FAFAFA"/>
<path d="M4 4H22V14.984H26V0H0V26H15V22H4V4Z" fill="#FAFAFA"/>
<path d="M20.1029 9.86705V7.68405H14.3059L13.6279 5.49805L11.5429 6.14505L12.0199 7.68405H5.66992V9.86805H8.94892C9.25792 12.751 10.2179 14.833 11.4279 16.366C10.0799 17.371 8.23592 18.259 5.66992 18.799C6.62792 20.503 6.62792 20.503 6.62792 20.503C6.62792 20.503 10.0559 20.369 13.0009 17.974C14.0019 18.788 15.0569 19.337 16.0169 19.713V17.276C15.4829 16.988 14.9999 16.684 14.5739 16.366C15.7839 14.833 16.7439 12.751 17.0529 9.86805H20.1029V9.86705ZM12.9999 14.907C10.8979 12.44 11.0199 9.86705 11.0199 9.86705H14.9799C14.9799 9.86705 15.1009 12.44 12.9999 14.907Z" fill="#FAFAFA"/>
</svg>
