<svg width="48" height="44" viewBox="0 0 48 44" fill="none" xmlns="http://www.w3.org/2000/svg">
<path d="M16 42.0001C16 42.7334 16.6 43.3334 17.3333 43.3334H20C20.7333 43.3334 21.3333 42.7334 21.3333 42.0001V27.3334H16V42.0001ZM18.6667 19.3334H14.425L10.6583 15.5584C9.65 14.5501 8.30833 14.0001 6.89167 14.0001H5.33333C3.90833 14.0001 2.56667 14.5584 1.55833 15.5667C0.558333 16.5751 0 17.9167 0 19.3417L0.0166667 27.3334L0 40.6667C0 42.1417 1.19167 43.3334 2.65833 43.3334C4.125 43.3334 5.325 42.1417 5.325 40.6667L5.33333 32.2751C5.40833 32.3167 5.46667 32.3834 5.54167 32.4167L7.96667 36.0001V40.6667C7.96667 42.1417 9.15833 43.3334 10.6333 43.3334C12.1083 43.3334 13.3 42.1417 13.3 40.6667V35.9584C13.3 35.1334 13.1083 34.3084 12.7417 33.5751L9.30833 28.4667V21.7501L11.05 23.4917C11.8083 24.2501 12.8083 24.6667 13.875 24.6667H18.6667C20.1417 24.6667 21.3333 23.4751 21.3333 22.0001C21.3333 20.5251 20.1417 19.3334 18.6667 19.3334ZM5.33333 11.3334C7.54167 11.3334 9.33333 9.54175 9.33333 7.33341C9.33333 5.12508 7.54167 3.33341 5.33333 3.33341C3.125 3.33341 1.33333 5.12508 1.33333 7.33341C1.33333 9.54175 3.125 11.3334 5.33333 11.3334ZM24 3.33341L26.625 21.9251L24.05 34.8084C23.6917 36.6084 25.1333 38.0001 26.6667 38.0001C27.9333 38.0001 29 37.2417 29.3583 35.4667C29.4333 36.8751 30.575 38.0001 32 38.0001C33.475 38.0001 34.6667 36.8084 34.6667 35.3334C34.6667 36.8084 35.8583 38.0001 37.3333 38.0001C38.8083 38.0001 40 36.8084 40 35.3334V0.666748H24V3.33341ZM16 3.33341V16.6667H21.3333V0.666748H18.6667C17.1917 0.666748 16 1.85841 16 3.33341ZM45.3333 0.666748H42.6667V42.0001C42.6667 42.7334 43.2667 43.3334 44 43.3334H46.6667C47.4 43.3334 48 42.7334 48 42.0001V3.33341C48 1.85841 46.8083 0.666748 45.3333 0.666748Z" fill="#FAFAFA"/>
</svg>
