<svg width="14" height="14" viewBox="0 0 14 14" fill="none" xmlns="http://www.w3.org/2000/svg">
<path fill-rule="evenodd" clip-rule="evenodd" d="M0 7C0 3.13401 3.13401 0 7 0C10.866 0 14 3.13401 14 7C14 10.866 10.866 14 7 14C3.13401 14 0 10.866 0 7Z" fill="white"/>
<g clip-path="url(#clip0_813_343)">
<path d="M12.0887 10.8182V10.8179H12.0909V7.55045C12.0909 5.95201 11.7468 4.7207 9.87809 4.7207C8.97976 4.7207 8.37691 5.21367 8.13079 5.68103H8.10481V4.86993H6.33301V10.8179H8.17794V7.87267C8.17794 7.0972 8.32494 6.34735 9.28527 6.34735C10.2315 6.34735 10.2456 7.23232 10.2456 7.92241V10.8182H12.0887Z" fill="#0A66C2"/>
<path d="M3.32812 4.87024H5.17528V10.8182H3.32812V4.87024Z" fill="#0A66C2"/>
<path d="M4.25147 1.90906C3.66088 1.90906 3.18164 2.38829 3.18164 2.97889C3.18164 3.56949 3.66088 4.05875 4.25147 4.05875C4.84207 4.05875 5.32131 3.56949 5.32131 2.97889C5.32094 2.38829 4.8417 1.90906 4.25147 1.90906V1.90906Z" fill="#0A66C2"/>
</g>
<defs>
<clipPath id="clip0_813_343">
<rect width="8.90909" height="8.90909" fill="white" transform="translate(3.18164 1.90906)"/>
</clipPath>
</defs>
</svg>
